<mxfile host="app.diagrams.net" modified="2023-06-26T15:00:26.678Z" agent="Mozilla/5.0 (Macintosh; Intel Mac OS X 10_15_7) AppleWebKit/537.36 (KHTML, like Gecko) Chrome/114.0.0.0 Safari/537.36" version="21.1.7" etag="-JJrJRyZJHzSBWoyuk0f" type="github">
  <diagram name="第 1 页" id="teWo0kkCnpDwHwIO7UxO">
    <mxGraphModel>
      <root>
        <mxCell id="0" />
        <mxCell id="1" parent="0" />
      </root>
    </mxGraphModel>
  </diagram>
</mxfile>
